# xmcd
#
# Track frame offsets:
#	150
#	22753
#	39755
#	52260
#	65813
#	84000
#	100383
#	116465
#	139365
#	149960
#	162293
#	172695
#	189888
#	206948
#	218370
#	230523
#	243233
#	273125
#
# Disc length: 3811
#
# Revision: 1
# Processed by: cddbd v1.5.1PL0 Copyright (c) Steve Scherf et al.
# Submitted via: OrangeCD 5.2
# Normalized: r0:DSETVAR1
#
DISCID=f60ee112
DTITLE=Various Artist - Raw Blues Vol. 2
DYEAR=1999
DGENRE=Blues
TTITLE0=Roberto Ciotti - Early On Sunday
TTITLE1=John Lee Hooker - My First Wife Left Me
TTITLE2=Lightnin` Hopkins - Shaggy Dog
TTITLE3=Lightnin` Hopkins - That's All Right
TTITLE4=Gregg Smith - Money Talks
TTITLE5=Jimmy Reed - Cold And Lonesome
TTITLE6=Little Walter and Otis Rush - Walter's Blues
TTITLE7=Lightnin` Hopkins - I'll Be Gone
TTITLE8=Mike Bloomfield - RX For The Blues
TTITLE9=Lightning Slim - Rooster Blues
TTITLE10=Memphis Slim - Little Lonely Girl
TTITLE11=Bo Diddley - Mona (I Need You Baby)
TTITLE12=Mississippi John Hurt - Lonesome Blues
TTITLE13=John Lee Hooker - Boom, Boom
TTITLE14=Mississippi John Hurt - Don't Think 'Cause Ou're Pretty
TTITLE15=Ray Charles - Rocking Chair Blues
TTITLE16=Rufus Thomas - Today
TTITLE17=Memphis Slim - Only Fools Have Fun
EXTD=
EXTT0=
EXTT1=
EXTT2=
EXTT3=
EXTT4=
EXTT5=
EXTT6=
EXTT7=
EXTT8=
EXTT9=
EXTT10=
EXTT11=
EXTT12=
EXTT13=
EXTT14=
EXTT15=
EXTT16=
EXTT17=
PLAYORDER=
